# xmcd CD database file
#
# Track frame offsets:
#	150
#	26399
#	46016
#	63118
#	84138
#	101815
#	116229
#	136585
#	147385
#	163508
#	184223
#	205006
#	224162
#	241726
#	255824
#
# Disc length: 3619 seconds
#
# Revision: 0
# Processed by: cddbd v1.5.2PL0 Copyright (c) Steve Scherf et al.
# Submitted via: CDex 1.79
#
DISCID=c30e210f
DTITLE=The Dukes Of Dixieland - Timeless - The Classic Collection CD 4
DYEAR=2006
DGENRE=Jazz
TTITLE0=Royal Garden Blues
TTITLE1=Just A Closer Walk with Thee
TTITLE2=Bourbon Street Parade
TTITLE3=Just A Little While To Stay Here
TTITLE4=Amazing Grace
TTITLE5=Swing Low, Sweet Charlot
TTITLE6=Swing Georgia Brown
TTITLE7=Running Wild
TTITLE8=Blueberry Hill
TTITLE9=What A Wonderful World
TTITLE10=Go To The Mardi Gras
TTITLE11=Big Chief
TTITLE12=Ice Cream
TTITLE13=Canal Street Boogie
TTITLE14=Black Bottom Stomp
EXTD=YEAR: 2006
EXTT0=
EXTT1=
EXTT2=
EXTT3=
EXTT4=
EXTT5=
EXTT6=
EXTT7=
EXTT8=
EXTT9=
EXTT10=
EXTT11=
EXTT12=
EXTT13=
EXTT14=
PLAYORDER=
